{
.appVersion = "1192";
DisplayStrings = (
a
);
customParameters = (
{
name = Axes;
value = (
{
Name = Weight;
Tag = wght;
},
{
}
);
},
{
name = "Enforce Compatibility Check";
value = 1;
}
);
date = "2019-01-07 00:33:32 +0000";
familyName = Slice;
featurePrefixes = (
{
automatic = 1;
code = "languagesystem DFLT dflt;\012";
name = Languagesystems;
}
);
features = (
{
automatic = 1;
code = "sub L U T E by L_U_T_E;\012sub L A by L_A;\012sub L E by L_E;\012sub L I by L_I;\012sub L O by L_O;\012sub L U by L_U;\012sub T E by T_E;\012";
name = dlig;
}
);
fontMaster = (
{
alignmentZones = (
"{810, 16}",
"{700, 15}",
"{500, 15}",
"{0, -15}",
"{-200, -15}"
);
ascender = 810;
capHeight = 700;
customValue = 200;
descender = -200;
id = "70C1C305-1527-4B64-A783-0E6E42733019";
name = "Light Condensed ";
weight = Light;
width = Condensed;
widthValue = 0;
xHeight = 500;
},
{
alignmentZones = (
"{810, 16}",
"{700, 15}",
"{500, 15}",
"{0, -15}",
"{-200, -15}"
);
ascender = 810;
capHeight = 700;
custom = Heavy;
customValue = 200;
descender = -200;
iconName = Bold_Condensed;
id = "A6FDD890-DF19-4F70-BF4D-8BEF15A30956";
name = "Heavy Condensed";
weightValue = 800;
width = Condensed;
widthValue = 400;
xHeight = 500;
},
{
alignmentZones = (
"{810, 16}",
"{700, 15}",
"{500, 15}",
"{0, -15}",
"{-200, -15}"
);
ascender = 810;
capHeight = 700;
customValue = 200;
descender = -200;
iconName = Light_Extended;
id = "3C16ED14-659A-4B3A-8531-3D340CEF6A86";
weight = Light;
xHeight = 500;
},
{
alignmentZones = (
"{800, 16}",
"{700, 15}",
"{500, 15}",
"{0, -15}",
"{-200, -15}"
);
ascender = 718;
capHeight = 718;
custom = Heavy;
customValue = 200;
descender = -200;
iconName = Bold_Extended;
id = "3F0EE33B-F72D-4BDD-9E60-96B83BD7A098";
visible = 1;
weightValue = 800;
xHeight = 500;
}
);
glyphs = (
{
glyphname = A;
lastChange = "2019-02-17 00:46:23 +0000";
layers = (
{
layerId = "3F0EE33B-F72D-4BDD-9E60-96B83BD7A098";
paths = (
{
closed = 1;
nodes = (
"364 -1 LINE",
"425 461 LINE",
"465 461 LINE",
"526 -1 LINE",
"850 -1 LINE",
"699 717 LINE",
"191 717 LINE",
"40 -1 LINE"
);
},
{
closed = 1;
nodes = (
"600 161 LINE",
"604 285 LINE",
"292 285 LINE",
"292 151 LINE"
);
}
);
width = 890;
},
{
layerId = "3C16ED14-659A-4B3A-8531-3D340CEF6A86";
paths = (
{
closed = 1;
nodes = (
"364 -1 LINE",
"425 461 LINE",
"465 461 LINE",
"526 -1 LINE",
"850 -1 LINE",
"699 717 LINE",
"191 717 LINE",
"40 -1 LINE"
);
},
{
closed = 1;
nodes = (
"600 161 LINE",
"604 285 LINE",
"292 285 LINE",
"292 151 LINE"
);
}
);
width = 890;
},
{
layerId = "70C1C305-1527-4B64-A783-0E6E42733019";
width = 600;
},
{
layerId = "A6FDD890-DF19-4F70-BF4D-8BEF15A30956";
width = 600;
}
);
unicode = 0041;
},
{
glyphname = B;
lastChange = "2019-01-06 21:21:42 +0000";
layers = (
{
layerId = "3F0EE33B-F72D-4BDD-9E60-96B83BD7A098";
paths = (
{
closed = 1;
nodes = (
"559 0 LINE SMOOTH",
"662 0 OFFCURVE",
"781 46 OFFCURVE",
"781 197 CURVE SMOOTH",
"781 318 OFFCURVE",
"754 418 OFFCURVE",
"609 418 CURVE SMOOTH",
"90 418 LINE",
"90 264 LINE",
"463 282 LINE",
"453 147 LINE",
"90 128 LINE",
"90 0 LINE"
);
},
{
closed = 1;
nodes = (
"360 0 LINE",
"360 718 LINE",
"40 718 LINE",
"40 0 LINE"
);
},
{
closed = 1;
nodes = (
"599 418 LINE SMOOTH",
"714 418 OFFCURVE",
"741 454 OFFCURVE",
"741 568 CURVE SMOOTH",
"741 695 OFFCURVE",
"671 718 OFFCURVE",
"585 718 CURVE SMOOTH",
"80 718 LINE",
"80 614 LINE",
"453 626 LINE",
"443 517 LINE",
"80 504 LINE",
"80 418 LINE"
);
}
);
width = 811;
},
{
layerId = "3C16ED14-659A-4B3A-8531-3D340CEF6A86";
width = 600;
},
{
layerId = "70C1C305-1527-4B64-A783-0E6E42733019";
width = 600;
},
{
layerId = "A6FDD890-DF19-4F70-BF4D-8BEF15A30956";
width = 600;
}
);
leftMetricsKey = H;
unicode = 0042;
},
{
glyphname = C;
lastChange = "2019-02-17 00:49:21 +0000";
layers = (
{
layerId = "3F0EE33B-F72D-4BDD-9E60-96B83BD7A098";
paths = (
{
closed = 1;
nodes = (
"758 0 LINE",
"758 309 LINE",
"360 299 LINE",
"360 420 LINE",
"758 410 LINE",
"758 718 LINE",
"94 718 LINE SMOOTH",
"63 718 OFFCURVE",
"40 699 OFFCURVE",
"40 667 CURVE",
"40 51 LINE",
"40 19 OFFCURVE",
"63 0 OFFCURVE",
"94 0 CURVE SMOOTH"
);
}
);
width = 798;
},
{
layerId = "3C16ED14-659A-4B3A-8531-3D340CEF6A86";
paths = (
{
closed = 1;
nodes = (
"598 1 LINE",
"598 96 LINE",
"32 84 LINE",
"32 698 LINE",
"598 686 LINE",
"598 718 LINE",
"54 719 LINE SMOOTH",
"23 719 OFFCURVE",
"0 699 OFFCURVE",
"0 667 CURVE",
"0 52 LINE",
"0 20 OFFCURVE",
"23 0 OFFCURVE",
"54 0 CURVE SMOOTH"
);
}
);
width = 638;
},
{
layerId = "70C1C305-1527-4B64-A783-0E6E42733019";
paths = (
{
closed = 1;
nodes = (
"278 1 LINE",
"278 119 LINE",
"130 109 LINE",
"130 610 LINE",
"278 600 LINE",
"278 718 LINE",
"54 719 LINE SMOOTH",
"23 719 OFFCURVE",
"0 699 OFFCURVE",
"0 667 CURVE",
"0 52 LINE",
"0 20 OFFCURVE",
"23 0 OFFCURVE",
"54 0 CURVE SMOOTH"
);
}
);
width = 298;
},
{
layerId = "A6FDD890-DF19-4F70-BF4D-8BEF15A30956";
paths = (
{
closed = 1;
nodes = (
"388 1 LINE",
"388 239 LINE",
"240 229 LINE",
"240 490 LINE",
"388 480 LINE",
"388 718 LINE",
"54 719 LINE SMOOTH",
"23 719 OFFCURVE",
"0 699 OFFCURVE",
"0 667 CURVE",
"0 52 LINE",
"0 20 OFFCURVE",
"23 0 OFFCURVE",
"54 0 CURVE SMOOTH"
);
}
);
width = 408;
}
);
leftMetricsKey = H;
unicode = 0043;
},
{
glyphname = D;
lastChange = "2019-02-17 00:43:45 +0000";
layers = (
{
components = (
{
name = Stem;
transform = "{1, 0, 0, 1, 40, 0}";
}
);
layerId = "3F0EE33B-F72D-4BDD-9E60-96B83BD7A098";
paths = (
{
closed = 1;
nodes = (
"516 0 LINE SMOOTH",
"701 0 OFFCURVE",
"781 180 OFFCURVE",
"781 360 CURVE SMOOTH",
"781 539 OFFCURVE",
"700 718 OFFCURVE",
"516 718 CURVE SMOOTH",
"90 718 LINE",
"90 505 LINE",
"463 537 LINE",
"453 201 LINE",
"90 168 LINE",
"90 0 LINE"
);
}
);
width = 811;
},
{
layerId = "3C16ED14-659A-4B3A-8531-3D340CEF6A86";
width = 600;
},
{
layerId = "70C1C305-1527-4B64-A783-0E6E42733019";
width = 600;
},
{
layerId = "A6FDD890-DF19-4F70-BF4D-8BEF15A30956";
width = 600;
}
);
leftMetricsKey = H;
unicode = 0044;
},
{
glyphname = E;
lastChange = "2019-01-06 21:25:59 +0000";
layers = (
{
layerId = "3F0EE33B-F72D-4BDD-9E60-96B83BD7A098";
paths = (
{
closed = 1;
nodes = (
"775 0 LINE",
"781 279 LINE",
"360 269 LINE",
"360 450 LINE",
"775 440 LINE",
"781 718 LINE",
"40 718 LINE",
"40 0 LINE"
);
},
{
closed = 1;
nodes = (
"710 323 LINE",
"716 398 LINE",
"275 398 LINE",
"275 313 LINE"
);
}
);
width = 821;
},
{
layerId = "3C16ED14-659A-4B3A-8531-3D340CEF6A86";
paths = (
{
closed = 1;
nodes = (
"538 1 LINE",
"541 106 LINE",
"100 96 LINE",
"100 628 LINE",
"538 616 LINE",
"541 718 LINE",
"0 719 LINE",
"0 0 LINE"
);
},
{
closed = 1;
nodes = (
"313 398 LINE",
"35 388 LINE",
"35 330 LINE",
"299 320 LINE"
);
}
);
width = 581;
},
{
layerId = "70C1C305-1527-4B64-A783-0E6E42733019";
paths = (
{
closed = 1;
nodes = (
"305 1 LINE",
"308 118 LINE",
"120 108 LINE",
"120 611 LINE",
"305 604 LINE",
"308 718 LINE",
"0 719 LINE",
"0 0 LINE"
);
},
{
closed = 1;
nodes = (
"226 321 LINE",
"229 389 LINE",
"35 372 LINE",
"40 309 LINE"
);
}
);
width = 328;
},
{
layerId = "A6FDD890-DF19-4F70-BF4D-8BEF15A30956";
paths = (
{
closed = 1;
nodes = (
"415 1 LINE",
"418 239 LINE",
"240 229 LINE",
"240 490 LINE",
"415 480 LINE",
"418 718 LINE",
"0 719 LINE",
"0 0 LINE"
);
},
{
closed = 1;
nodes = (
"360 310 LINE",
"373 418 LINE",
"155 418 LINE",
"155 300 LINE"
);
}
);
width = 438;
}
);
leftMetricsKey = H;
unicode = 0045;
},
{
glyphname = F;
lastChange = "2019-01-06 20:52:08 +0000";
layers = (
{
components = (
{
name = Stem;
transform = "{1, 0, 0, 1, 40, 0}";
},
{
alignment = -1;
name = Top_Arm;
transform = "{1, 0, 0, 1, 40, 0}";
}
);
layerId = "3F0EE33B-F72D-4BDD-9E60-96B83BD7A098";
paths = (
{
closed = 1;
nodes = (
"705 255 LINE",
"711 361 LINE",
"274 361 LINE",
"268 245 LINE"
);
}
);
width = 821;
},
{
layerId = "3C16ED14-659A-4B3A-8531-3D340CEF6A86";
width = 600;
},
{
layerId = "70C1C305-1527-4B64-A783-0E6E42733019";
width = 600;
},
{
layerId = "A6FDD890-DF19-4F70-BF4D-8BEF15A30956";
width = 600;
}
);
leftMetricsKey = H;
unicode = 0046;
},
{
glyphname = G;
lastChange = "2019-01-06 20:52:08 +0000";
layers = (
{
layerId = "3F0EE33B-F72D-4BDD-9E60-96B83BD7A098";
paths = (
{
closed = 1;
nodes = (
"758 0 LINE",
"758 249 LINE",
"360 239 LINE",
"360 450 LINE",
"758 440 LINE",
"758 718 LINE",
"94 718 LINE SMOOTH",
"63 718 OFFCURVE",
"40 699 OFFCURVE",
"40 667 CURVE",
"40 51 LINE",
"40 19 OFFCURVE",
"63 0 OFFCURVE",
"94 0 CURVE SMOOTH"
);
},
{
closed = 1;
nodes = (
"757 0 LINE",
"758 401 LINE",
"472 401 LINE",
"466 283 LINE",
"560 286 LINE",
"560 0 LINE"
);
}
);
width = 798;
},
{
layerId = "3C16ED14-659A-4B3A-8531-3D340CEF6A86";
width = 600;
},
{
layerId = "70C1C305-1527-4B64-A783-0E6E42733019";
width = 600;
},
{
layerId = "A6FDD890-DF19-4F70-BF4D-8BEF15A30956";
width = 600;
}
);
leftMetricsKey = H;
unicode = 0047;
},
{
glyphname = I;
lastChange = "2019-01-06 21:25:59 +0000";
layers = (
{
layerId = "3F0EE33B-F72D-4BDD-9E60-96B83BD7A098";
paths = (
{
closed = 1;
nodes = (
"375 1 LINE",
"371 505 LINE",
"40 495 LINE",
"42 0 LINE"
);
},
{
closed = 1;
nodes = (
"375 541 LINE",
"371 719 LINE",
"40 709 LINE",
"42 540 LINE"
);
}
);
width = 415;
},
{
layerId = "3C16ED14-659A-4B3A-8531-3D340CEF6A86";
paths = (
{
closed = 1;
nodes = (
"105 5 LINE",
"101 549 LINE",
"0 545 LINE",
"2 0 LINE"
);
},
{
closed = 1;
nodes = (
"105 584 LINE",
"101 710 LINE",
"0 706 LINE",
"2 579 LINE"
);
}
);
width = 145;
},
{
layerId = "70C1C305-1527-4B64-A783-0E6E42733019";
paths = (
{
closed = 1;
nodes = (
"135 5 LINE",
"131 549 LINE",
"0 545 LINE",
"2 0 LINE"
);
},
{
closed = 1;
nodes = (
"135 584 LINE",
"131 710 LINE",
"0 706 LINE",
"2 579 LINE"
);
}
);
width = 155;
},
{
layerId = "A6FDD890-DF19-4F70-BF4D-8BEF15A30956";
paths = (
{
closed = 1;
nodes = (
"245 1 LINE",
"241 505 LINE",
"0 495 LINE",
"2 0 LINE"
);
},
{
closed = 1;
nodes = (
"245 541 LINE",
"241 719 LINE",
"0 709 LINE",
"2 540 LINE"
);
}
);
width = 265;
}
);
leftMetricsKey = H;
unicode = 0049;
},
{
glyphname = J;
lastChange = "2019-01-06 20:52:08 +0000";
layers = (
{
layerId = "3F0EE33B-F72D-4BDD-9E60-96B83BD7A098";
paths = (
{
closed = 1;
nodes = (
"696 0 LINE SMOOTH",
"728 0 OFFCURVE",
"748 23 OFFCURVE",
"748 54 CURVE SMOOTH",
"747 717 LINE",
"417 709 LINE",
"417 161 LINE",
"361 161 LINE",
"363 363 LINE",
"40 358 LINE",
"40 27 LINE",
"40 9 OFFCURVE",
"56 0 OFFCURVE",
"70 0 CURVE"
);
}
);
width = 788;
},
{
layerId = "3C16ED14-659A-4B3A-8531-3D340CEF6A86";
width = 600;
},
{
layerId = "70C1C305-1527-4B64-A783-0E6E42733019";
width = 600;
},
{
layerId = "A6FDD890-DF19-4F70-BF4D-8BEF15A30956";
width = 600;
}
);
unicode = 004A;
},
{
glyphname = K;
lastChange = "2019-01-06 20:52:08 +0000";
layers = (
{
components = (
{
name = Stem;
transform = "{1, 0, 0, 1, 40, 0}";
}
);
layerId = "3F0EE33B-F72D-4BDD-9E60-96B83BD7A098";
paths = (
{
closed = 1;
nodes = (
"559 250 LINE",
"836 718 LINE",
"492 718 LINE",
"360 445 LINE",
"360 250 LINE"
);
},
{
closed = 1;
nodes = (
"836 1 LINE",
"622 398 LINE",
"360 399 LINE",
"360 250 LINE",
"516 0 LINE"
);
}
);
width = 866;
},
{
layerId = "3C16ED14-659A-4B3A-8531-3D340CEF6A86";
width = 600;
},
{
layerId = "70C1C305-1527-4B64-A783-0E6E42733019";
width = 600;
},
{
layerId = "A6FDD890-DF19-4F70-BF4D-8BEF15A30956";
width = 600;
}
);
leftMetricsKey = H;
unicode = 004B;
},
{
glyphname = L;
lastChange = "2019-01-06 21:25:59 +0000";
layers = (
{
layerId = "3F0EE33B-F72D-4BDD-9E60-96B83BD7A098";
paths = (
{
closed = 1;
nodes = (
"650 1 LINE",
"660 291 LINE",
"362 291 LINE",
"361 722 LINE",
"40 711 LINE",
"42 52 LINE SMOOTH",
"42 20 OFFCURVE",
"65 0 OFFCURVE",
"96 0 CURVE SMOOTH"
);
}
);
width = 700;
},
{
layerId = "3C16ED14-659A-4B3A-8531-3D340CEF6A86";
paths = (
{
closed = 1;
nodes = (
"493 1 LINE",
"500 109 LINE",
"102 99 LINE",
"101 716 LINE",
"0 705 LINE",
"2 52 LINE",
"2 20 OFFCURVE",
"25 0 OFFCURVE",
"56 0 CURVE"
);
}
);
width = 540;
},
{
layerId = "70C1C305-1527-4B64-A783-0E6E42733019";
paths = (
{
closed = 1;
nodes = (
"286 1 LINE",
"290 109 LINE",
"122 109 LINE",
"121 711 LINE",
"0 700 LINE",
"2 52 LINE",
"2 20 OFFCURVE",
"25 0 OFFCURVE",
"56 0 CURVE"
);
}
);
width = 310;
},
{
layerId = "A6FDD890-DF19-4F70-BF4D-8BEF15A30956";
paths = (
{
closed = 1;
nodes = (
"375 1 LINE",
"380 239 LINE",
"242 239 LINE",
"241 720 LINE",
"0 709 LINE",
"2 52 LINE",
"2 20 OFFCURVE",
"25 0 OFFCURVE",
"56 0 CURVE"
);
}
);
width = 400;
}
);
leftMetricsKey = H;
unicode = 004C;
},
{
glyphname = M;
lastChange = "2019-01-06 20:52:08 +0000";
layers = (
{
components = (
{
name = Stem;
transform = "{1, 0, 0, 1, 40, 0}";
},
{
alignment = -1;
name = Stem;
transform = "{1, 0, 0, 1, 592, 0}";
}
);
layerId = "3F0EE33B-F72D-4BDD-9E60-96B83BD7A098";
paths = (
{
closed = 1;
nodes = (
"595 258 LINE",
"595 718 LINE",
"477 471 LINE",
"477 -10 LINE"
);
},
{
closed = 1;
nodes = (
"477 471 LINE",
"360 718 LINE",
"360 258 LINE",
"477 -10 LINE"
);
}
);
width = 952;
},
{
layerId = "3C16ED14-659A-4B3A-8531-3D340CEF6A86";
width = 600;
},
{
layerId = "70C1C305-1527-4B64-A783-0E6E42733019";
width = 600;
},
{
layerId = "A6FDD890-DF19-4F70-BF4D-8BEF15A30956";
width = 600;
}
);
leftMetricsKey = H;
unicode = 004D;
},
{
glyphname = N;
lastChange = "2019-01-07 16:00:58 +0000";
layers = (
{
components = (
{
name = Stem;
transform = "{1, 0, 0, 1, 40, 0}";
},
{
alignment = -1;
name = Stem;
transform = "{1, 0, 0, 1, 466, 0}";
}
);
layerId = "3F0EE33B-F72D-4BDD-9E60-96B83BD7A098";
paths = (
{
closed = 1;
nodes = (
"466 327 LINE",
"360 718 LINE",
"360 393 LINE",
"466 0 LINE"
);
}
);
width = 826;
},
{
layerId = "3C16ED14-659A-4B3A-8531-3D340CEF6A86";
width = 600;
},
{
layerId = "70C1C305-1527-4B64-A783-0E6E42733019";
width = 600;
},
{
layerId = "A6FDD890-DF19-4F70-BF4D-8BEF15A30956";
width = 600;
}
);
leftMetricsKey = H;
unicode = 004E;
},
{
glyphname = O;
lastChange = "2019-01-06 20:52:08 +0000";
layers = (
{
layerId = "3F0EE33B-F72D-4BDD-9E60-96B83BD7A098";
paths = (
{
closed = 1;
nodes = (
"574 0 LINE SMOOTH",
"745 0 OFFCURVE",
"778 99 OFFCURVE",
"778 201 CURVE SMOOTH",
"778 517 LINE SMOOTH",
"778 619 OFFCURVE",
"745 718 OFFCURVE",
"574 718 CURVE SMOOTH",
"244 718 LINE SMOOTH",
"73 718 OFFCURVE",
"40 619 OFFCURVE",
"40 517 CURVE SMOOTH",
"40 201 LINE SMOOTH",
"40 99 OFFCURVE",
"73 0 OFFCURVE",
"244 0 CURVE SMOOTH"
);
},
{
closed = 1;
nodes = (
"360 527 LINE",
"463 537 LINE",
"453 202 LINE",
"360 192 LINE"
);
}
);
width = 818;
},
{
layerId = "3C16ED14-659A-4B3A-8531-3D340CEF6A86";
width = 600;
},
{
layerId = "70C1C305-1527-4B64-A783-0E6E42733019";
width = 600;
},
{
layerId = "A6FDD890-DF19-4F70-BF4D-8BEF15A30956";
width = 600;
}
);
unicode = 004F;
},
{
glyphname = P;
lastChange = "2019-02-17 00:44:14 +0000";
layers = (
{
components = (
{
name = Stem;
transform = "{1, 0, 0, 1, 40, 0}";
}
);
layerId = "3F0EE33B-F72D-4BDD-9E60-96B83BD7A098";
paths = (
{
closed = 1;
nodes = (
"562 168 LINE SMOOTH",
"724 168 OFFCURVE",
"804 306 OFFCURVE",
"804 444 CURVE SMOOTH",
"804 581 OFFCURVE",
"723 718 OFFCURVE",
"562 718 CURVE SMOOTH",
"120 718 LINE",
"120 482 LINE",
"481 490 LINE",
"481 397 LINE",
"120 404 LINE",
"120 168 LINE"
);
}
);
width = 841;
},
{
layerId = "3C16ED14-659A-4B3A-8531-3D340CEF6A86";
width = 600;
},
{
layerId = "70C1C305-1527-4B64-A783-0E6E42733019";
width = 600;
},
{
layerId = "A6FDD890-DF19-4F70-BF4D-8BEF15A30956";
width = 600;
}
);
leftMetricsKey = H;
unicode = 0050;
},
{
glyphname = Q;
lastChange = "2019-01-06 20:52:08 +0000";
layers = (
{
components = (
{
name = O;
}
);
layerId = "3F0EE33B-F72D-4BDD-9E60-96B83BD7A098";
paths = (
{
closed = 1;
nodes = (
"701 -47 LINE",
"557 -31 LINE",
"536 38 LINE",
"265 24 LINE",
"370 -172 LINE",
"684 -200 LINE"
);
}
);
width = 818;
},
{
layerId = "3C16ED14-659A-4B3A-8531-3D340CEF6A86";
width = 600;
},
{
layerId = "70C1C305-1527-4B64-A783-0E6E42733019";
width = 600;
},
{
layerId = "A6FDD890-DF19-4F70-BF4D-8BEF15A30956";
width = 600;
}
);
leftMetricsKey = O;
unicode = 0051;
},
{
glyphname = R;
lastChange = "2019-01-06 20:52:08 +0000";
layers = (
{
components = (
{
name = P;
}
);
layerId = "3F0EE33B-F72D-4BDD-9E60-96B83BD7A098";
paths = (
{
closed = 1;
nodes = (
"803 0 LINE",
"663 315 LINE",
"409 315 LINE",
"409 170 LINE",
"471 0 LINE"
);
}
);
width = 841;
},
{
layerId = "3C16ED14-659A-4B3A-8531-3D340CEF6A86";
width = 600;
},
{
layerId = "70C1C305-1527-4B64-A783-0E6E42733019";
width = 600;
},
{
layerId = "A6FDD890-DF19-4F70-BF4D-8BEF15A30956";
width = 600;
}
);
unicode = 0052;
},
{
glyphname = S;
lastChange = "2019-01-06 21:25:59 +0000";
layers = (
{
layerId = "3F0EE33B-F72D-4BDD-9E60-96B83BD7A098";
paths = (
{
closed = 1;
nodes = (
"873 1 LINE SMOOTH",
"894 1 OFFCURVE",
"916 26 OFFCURVE",
"916 48 CURVE SMOOTH",
"916 373 LINE",
"916 400 OFFCURVE",
"908 415 OFFCURVE",
"873 415 CURVE",
"366 410 LINE",
"366 450 LINE",
"905 450 LINE",
"913 718 LINE",
"102 719 LINE SMOOTH",
"71 719 OFFCURVE",
"48 699 OFFCURVE",
"48 667 CURVE SMOOTH",
"48 337 LINE",
"48 323 OFFCURVE",
"57 307 OFFCURVE",
"75 307 CURVE",
"593 316 LINE",
"593 269 LINE",
"48 269 LINE",
"42 0 LINE"
);
}
);
width = 958;
},
{
layerId = "3C16ED14-659A-4B3A-8531-3D340CEF6A86";
paths = (
{
closed = 1;
nodes = (
"717 1 LINE SMOOTH",
"738 1 OFFCURVE",
"760 26 OFFCURVE",
"760 48 CURVE SMOOTH",
"760 358 LINE",
"760 385 OFFCURVE",
"752 400 OFFCURVE",
"717 400 CURVE",
"148 390 LINE",
"148 620 LINE",
"753 610 LINE",
"757 718 LINE",
"112 719 LINE SMOOTH",
"71 719 OFFCURVE",
"48 699 OFFCURVE",
"48 667 CURVE SMOOTH",
"48 346 LINE",
"48 332 OFFCURVE",
"57 316 OFFCURVE",
"75 316 CURVE",
"660 325 LINE",
"660 99 LINE",
"45 109 LINE",
"40 0 LINE"
);
}
);
width = 800;
},
{
layerId = "70C1C305-1527-4B64-A783-0E6E42733019";
paths = (
{
closed = 1;
nodes = (
"337 1 LINE SMOOTH",
"358 1 OFFCURVE",
"380 16 OFFCURVE",
"380 38 CURVE SMOOTH",
"380 358 LINE",
"380 385 OFFCURVE",
"372 400 OFFCURVE",
"337 400 CURVE",
"146 390 LINE",
"146 610 LINE",
"374 600 LINE",
"377 718 LINE",
"100 719 LINE SMOOTH",
"36 719 OFFCURVE",
"26 709 OFFCURVE",
"26 677 CURVE SMOOTH",
"26 362 LINE",
"26 348 OFFCURVE",
"35 332 OFFCURVE",
"53 332 CURVE",
"263 341 LINE",
"263 109 LINE",
"23 119 LINE",
"20 0 LINE"
);
}
);
width = 400;
},
{
layerId = "A6FDD890-DF19-4F70-BF4D-8BEF15A30956";
paths = (
{
closed = 1;
nodes = (
"441 1 LINE SMOOTH",
"462 1 OFFCURVE",
"484 26 OFFCURVE",
"484 48 CURVE SMOOTH",
"484 388 LINE",
"484 415 OFFCURVE",
"476 430 OFFCURVE",
"441 430 CURVE",
"267 420 LINE",
"267 490 LINE",
"467 480 LINE",
"471 718 LINE",
"81 719 LINE SMOOTH",
"50 719 OFFCURVE",
"27 699 OFFCURVE",
"27 667 CURVE SMOOTH",
"27 332 LINE",
"27 318 OFFCURVE",
"36 302 OFFCURVE",
"54 302 CURVE",
"244 301 LINE",
"244 249 LINE",
"24 239 LINE",
"20 0 LINE"
);
}
);
width = 504;
}
);
unicode = 0053;
},
{
glyphname = U;
lastChange = "2019-01-06 20:52:08 +0000";
layers = (
{
layerId = "3F0EE33B-F72D-4BDD-9E60-96B83BD7A098";
paths = (
{
closed = 1;
nodes = (
"719 0 LINE SMOOTH",
"750 0 OFFCURVE",
"773 19 OFFCURVE",
"773 51 CURVE SMOOTH",
"773 722 LINE",
"463 718 LINE",
"453 202 LINE",
"360 192 LINE",
"360 721 LINE",
"40 716 LINE",
"40 51 LINE SMOOTH",
"40 19 OFFCURVE",
"63 0 OFFCURVE",
"94 0 CURVE SMOOTH"
);
}
);
width = 813;
},
{
layerId = "3C16ED14-659A-4B3A-8531-3D340CEF6A86";
width = 600;
},
{
layerId = "70C1C305-1527-4B64-A783-0E6E42733019";
width = 600;
},
{
layerId = "A6FDD890-DF19-4F70-BF4D-8BEF15A30956";
width = 600;
}
);
leftMetricsKey = H;
unicode = 0055;
},
{
glyphname = V;
lastChange = "2019-01-06 20:52:08 +0000";
layers = (
{
layerId = "3F0EE33B-F72D-4BDD-9E60-96B83BD7A098";
paths = (
{
closed = 1;
nodes = (
"609 0 LINE",
"850 718 LINE",
"506 718 LINE",
"444 350 LINE",
"444 0 LINE"
);
},
{
closed = 1;
nodes = (
"446 0 LINE",
"446 350 LINE",
"384 718 LINE",
"40 718 LINE",
"281 0 LINE"
);
}
);
width = 890;
},
{
layerId = "3C16ED14-659A-4B3A-8531-3D340CEF6A86";
width = 600;
},
{
layerId = "70C1C305-1527-4B64-A783-0E6E42733019";
width = 600;
},
{
layerId = "A6FDD890-DF19-4F70-BF4D-8BEF15A30956";
width = 600;
}
);
unicode = 0056;
},
{
glyphname = W;
lastChange = "2019-02-17 00:44:43 +0000";
layers = (
{
layerId = "3F0EE33B-F72D-4BDD-9E60-96B83BD7A098";
paths = (
{
closed = 1;
nodes = (
"1025 0 LINE",
"1266 718 LINE",
"922 718 LINE",
"860 350 LINE",
"860 0 LINE"
);
},
{
closed = 1;
nodes = (
"496 0 LINE",
"496 350 LINE",
"434 718 LINE",
"90 718 LINE",
"331 0 LINE"
);
},
{
closed = 1;
nodes = (
"609 0 LINE",
"750 718 LINE",
"606 718 LINE",
"494 350 LINE",
"494 0 LINE"
);
},
{
closed = 1;
nodes = (
"862 0 LINE",
"862 350 LINE",
"750 718 LINE",
"606 718 LINE",
"747 0 LINE"
);
}
);
width = 1354;
},
{
layerId = "3C16ED14-659A-4B3A-8531-3D340CEF6A86";
width = 600;
},
{
layerId = "70C1C305-1527-4B64-A783-0E6E42733019";
width = 600;
},
{
layerId = "A6FDD890-DF19-4F70-BF4D-8BEF15A30956";
width = 600;
}
);
unicode = 0057;
},
{
glyphname = X;
lastChange = "2019-01-06 20:52:08 +0000";
layers = (
{
layerId = "3F0EE33B-F72D-4BDD-9E60-96B83BD7A098";
paths = (
{
closed = 1;
nodes = (
"609 326 LINE",
"850 718 LINE",
"506 718 LINE",
"444 517 LINE",
"444 326 LINE"
);
},
{
closed = 1;
nodes = (
"384 -1 LINE",
"446 200 LINE",
"446 391 LINE",
"281 391 LINE",
"40 -1 LINE"
);
},
{
closed = 1;
nodes = (
"446 326 LINE",
"446 517 LINE",
"384 718 LINE",
"40 718 LINE",
"281 326 LINE"
);
},
{
closed = 1;
nodes = (
"850 -1 LINE",
"609 391 LINE",
"444 391 LINE",
"444 200 LINE",
"506 -1 LINE"
);
}
);
width = 890;
},
{
layerId = "3C16ED14-659A-4B3A-8531-3D340CEF6A86";
width = 600;
},
{
layerId = "70C1C305-1527-4B64-A783-0E6E42733019";
width = 600;
},
{
layerId = "A6FDD890-DF19-4F70-BF4D-8BEF15A30956";
width = 600;
}
);
unicode = 0058;
},
{
glyphname = Y;
lastChange = "2019-01-06 20:52:08 +0000";
layers = (
{
layerId = "3F0EE33B-F72D-4BDD-9E60-96B83BD7A098";
paths = (
{
closed = 1;
nodes = (
"549 238 LINE",
"820 718 LINE",
"476 718 LINE",
"414 500 LINE",
"414 198 LINE"
);
},
{
closed = 1;
nodes = (
"574 1 LINE",
"574 318 LINE",
"254 319 LINE",
"254 0 LINE"
);
},
{
closed = 1;
nodes = (
"416 500 LINE",
"354 718 LINE",
"10 718 LINE",
"281 238 LINE",
"416 198 LINE"
);
}
);
width = 830;
},
{
layerId = "3C16ED14-659A-4B3A-8531-3D340CEF6A86";
width = 600;
},
{
layerId = "70C1C305-1527-4B64-A783-0E6E42733019";
width = 600;
},
{
layerId = "A6FDD890-DF19-4F70-BF4D-8BEF15A30956";
width = 600;
}
);
unicode = 0059;
},
{
glyphname = Z;
lastChange = "2019-01-06 20:52:08 +0000";
layers = (
{
components = (
{
name = Top_Arm;
transform = "{1, 0, 0, 1, 95, 0}";
},
{
alignment = -1;
name = Bottom_Arm;
transform = "{1, 0, 0, 1, 83, 0}";
}
);
layerId = "3F0EE33B-F72D-4BDD-9E60-96B83BD7A098";
paths = (
{
closed = 1;
nodes = (
"332 288 LINE",
"830 409 LINE",
"509 427 LINE",
"83 288 LINE"
);
}
);
width = 864;
},
{
layerId = "3C16ED14-659A-4B3A-8531-3D340CEF6A86";
width = 600;
},
{
layerId = "70C1C305-1527-4B64-A783-0E6E42733019";
width = 600;
},
{
layerId = "A6FDD890-DF19-4F70-BF4D-8BEF15A30956";
width = 600;
}
);
unicode = 005A;
},
{
glyphname = a;
lastChange = "2019-04-01 20:23:44 +0000";
layers = (
{
layerId = "3F0EE33B-F72D-4BDD-9E60-96B83BD7A098";
paths = (
{
closed = 1;
nodes = (
"271 -31 OFFCURVE",
"25 -2 OFFCURVE",
"25 98 CURVE SMOOTH",
"25 160 OFFCURVE",
"118 248 OFFCURVE",
"1012 248 CURVE",
"1012 164 LINE",
"724 164 OFFCURVE",
"583 153 OFFCURVE",
"583 132 CURVE SMOOTH",
"583 116 OFFCURVE",
"672 108 OFFCURVE",
"794 108 CURVE SMOOTH",
"908 108 OFFCURVE",
"955 115 OFFCURVE",
"1012 125 CURVE",
"1012 31 LINE",
"890 7 OFFCURVE",
"708 -31 OFFCURVE",
"475 -31 CURVE SMOOTH"
);
},
{
closed = 1;
nodes = (
"1012 0 LINE",
"1012 250 LINE SMOOTH",
"1012 275 OFFCURVE",
"961 288 OFFCURVE",
"688 288 CURVE SMOOTH",
"375 288 OFFCURVE",
"240 271 OFFCURVE",
"85 249 CURVE",
"143 469 LINE",
"280 486 OFFCURVE",
"585 507 OFFCURVE",
"878 507 CURVE SMOOTH",
"1402 507 OFFCURVE",
"1560 440 OFFCURVE",
"1560 310 CURVE SMOOTH",
"1560 0 LINE"
);
}
);
width = 1585;
},
{
layerId = "3C16ED14-659A-4B3A-8531-3D340CEF6A86";
paths = (
{
closed = 1;
nodes = (
"258 -30 OFFCURVE",
"25 28 OFFCURVE",
"25 122 CURVE SMOOTH",
"25 232 OFFCURVE",
"348 312 OFFCURVE",
"1530 312 CURVE",
"1530 292 LINE",
"365 292 OFFCURVE",
"55 214 OFFCURVE",
"55 122 CURVE SMOOTH",
"55 68 OFFCURVE",
"164 -10 OFFCURVE",
"662 -10 CURVE SMOOTH",
"1032 -10 OFFCURVE",
"1382 33 OFFCURVE",
"1530 117 CURVE",
"1530 97 LINE",
"1390 21 OFFCURVE",
"1047 -30 OFFCURVE",
"665 -30 CURVE SMOOTH"
);
},
{
closed = 1;
nodes = (
"1530 0 LINE",
"1530 324 LINE SMOOTH",
"1530 431 OFFCURVE",
"1387 495 OFFCURVE",
"888 495 CURVE SMOOTH",
"570 495 OFFCURVE",
"184 469 OFFCURVE",
"25 428 CURVE",
"30 448 LINE",
"174 482 OFFCURVE",
"552 514 OFFCURVE",
"890 514 CURVE SMOOTH",
"1437 514 OFFCURVE",
"1560 430 OFFCURVE",
"1560 324 CURVE SMOOTH",
"1560 0 LINE"
);
}
);
width = 1585;
},
{
layerId = "70C1C305-1527-4B64-A783-0E6E42733019";
paths = (
{
closed = 1;
nodes = (
"46 -6 OFFCURVE",
"25 32 OFFCURVE",
"25 178 CURVE SMOOTH",
"25 356 OFFCURVE",
"56 401 OFFCURVE",
"91 401 CURVE",
"91 381 LINE",
"69 381 OFFCURVE",
"55 343 OFFCURVE",
"55 174 CURVE SMOOTH",
"55 47 OFFCURVE",
"63 14 OFFCURVE",
"72 14 CURVE SMOOTH",
"76 14 OFFCURVE",
"83 18 OFFCURVE",
"91 32 CURVE",
"91 12 LINE",
"84 -2 OFFCURVE",
"71 -6 OFFCURVE",
"65 -6 CURVE SMOOTH"
);
},
{
closed = 1;
nodes = (
"91 0 LINE",
"91 426 LINE SMOOTH",
"91 456 OFFCURVE",
"84 466 OFFCURVE",
"68 466 CURVE SMOOTH",
"59 466 OFFCURVE",
"47 463 OFFCURVE",
"33 457 CURVE",
"34 477 LINE",
"47 483 OFFCURVE",
"61 486 OFFCURVE",
"73 486 CURVE SMOOTH",
"107 486 OFFCURVE",
"121 462 OFFCURVE",
"121 431 CURVE SMOOTH",
"121 0 LINE"
);
}
);
width = 146;
},
{
layerId = "A6FDD890-DF19-4F70-BF4D-8BEF15A30956";
paths = (
{
closed = 1;
nodes = (
"47 -6 OFFCURVE",
"25 57 OFFCURVE",
"25 151 CURVE SMOOTH",
"25 298 OFFCURVE",
"79 359 OFFCURVE",
"124 359 CURVE",
"124 267 LINE",
"115 267 OFFCURVE",
"111 253 OFFCURVE",
"111 190 CURVE SMOOTH",
"111 159 OFFCURVE",
"112 143 OFFCURVE",
"118 143 CURVE SMOOTH",
"122 143 OFFCURVE",
"123 150 OFFCURVE",
"124 164 CURVE",
"124 64 LINE",
"118 14 OFFCURVE",
"99 -6 OFFCURVE",
"80 -6 CURVE SMOOTH"
);
},
{
closed = 1;
nodes = (
"124 0 LINE",
"124 360 LINE SMOOTH",
"124 372 OFFCURVE",
"114 377 OFFCURVE",
"101 377 CURVE SMOOTH",
"92 377 OFFCURVE",
"79 375 OFFCURVE",
"37 367 CURVE",
"57 466 LINE",
"80 476 OFFCURVE",
"113 486 OFFCURVE",
"144 486 CURVE SMOOTH",
"204 486 OFFCURVE",
"228 447 OFFCURVE",
"228 358 CURVE SMOOTH",
"228 0 LINE"
);
}
);
width = 253;
}
);
unicode = 0061;
},
{
glyphname = L_A;
lastChange = "2019-01-06 21:16:11 +0000";
layers = (
{
components = (
{
name = L;
},
{
name = E;
transform = "{1, 0, 0, 1, 310, 0}";
}
);
layerId = "70C1C305-1527-4B64-A783-0E6E42733019";
width = 638;
},
{
components = (
{
name = L;
},
{
name = E;
transform = "{1, 0, 0, 1, 400, 0}";
}
);
layerId = "A6FDD890-DF19-4F70-BF4D-8BEF15A30956";
width = 838;
},
{
components = (
{
name = L;
},
{
name = E;
transform = "{1, 0, 0, 1, 540, 0}";
}
);
layerId = "3C16ED14-659A-4B3A-8531-3D340CEF6A86";
width = 1121;
},
{
layerId = "3F0EE33B-F72D-4BDD-9E60-96B83BD7A098";
paths = (
{
closed = 1;
nodes = (
"1130 1 LINE",
"1140 208 LINE",
"362 208 LINE",
"361 722 LINE",
"40 711 LINE",
"42 52 LINE SMOOTH",
"42 20 OFFCURVE",
"65 0 OFFCURVE",
"96 0 CURVE SMOOTH"
);
},
{
closed = 1;
nodes = (
"913 363 LINE",
"917 442 LINE",
"627 442 LINE",
"627 357 LINE"
);
},
{
closed = 1;
nodes = (
"694 260 LINE",
"750 554 LINE",
"788 554 LINE",
"844 260 LINE",
"1145 260 LINE",
"1005 717 LINE",
"533 717 LINE",
"393 260 LINE"
);
}
);
width = 1185;
}
);
leftMetricsKey = L;
rightMetricsKey = E;
},
{
glyphname = L_E;
lastChange = "2019-01-06 21:16:11 +0000";
layers = (
{
components = (
{
name = L;
},
{
name = E;
transform = "{1, 0, 0, 1, 310, 0}";
}
);
layerId = "70C1C305-1527-4B64-A783-0E6E42733019";
width = 638;
},
{
components = (
{
name = L;
},
{
name = E;
transform = "{1, 0, 0, 1, 400, 0}";
}
);
layerId = "A6FDD890-DF19-4F70-BF4D-8BEF15A30956";
width = 838;
},
{
components = (
{
name = L;
},
{
name = E;
transform = "{1, 0, 0, 1, 540, 0}";
}
);
layerId = "3C16ED14-659A-4B3A-8531-3D340CEF6A86";
width = 1121;
},
{
layerId = "3F0EE33B-F72D-4BDD-9E60-96B83BD7A098";
paths = (
{
closed = 1;
nodes = (
"1130 1 LINE",
"1140 208 LINE",
"362 208 LINE",
"361 722 LINE",
"40 711 LINE",
"42 52 LINE SMOOTH",
"42 20 OFFCURVE",
"65 0 OFFCURVE",
"96 0 CURVE SMOOTH"
);
},
{
closed = 1;
nodes = (
"1147 258 LINE",
"1153 432 LINE",
"732 425 LINE",
"732 551 LINE",
"1147 544 LINE",
"1153 718 LINE",
"412 718 LINE",
"412 258 LINE"
);
},
{
closed = 1;
nodes = (
"1082 463 LINE",
"1088 515 LINE",
"647 515 LINE",
"647 456 LINE"
);
}
);
width = 1193;
}
);
leftMetricsKey = L;
rightMetricsKey = E;
},
{
glyphname = L_I;
lastChange = "2019-01-06 21:16:11 +0000";
layers = (
{
components = (
{
name = L;
},
{
name = E;
transform = "{1, 0, 0, 1, 310, 0}";
}
);
layerId = "70C1C305-1527-4B64-A783-0E6E42733019";
width = 638;
},
{
components = (
{
name = L;
},
{
name = E;
transform = "{1, 0, 0, 1, 400, 0}";
}
);
layerId = "A6FDD890-DF19-4F70-BF4D-8BEF15A30956";
width = 838;
},
{
components = (
{
name = L;
},
{
name = E;
transform = "{1, 0, 0, 1, 540, 0}";
}
);
layerId = "3C16ED14-659A-4B3A-8531-3D340CEF6A86";
width = 1121;
},
{
layerId = "3F0EE33B-F72D-4BDD-9E60-96B83BD7A098";
paths = (
{
closed = 1;
nodes = (
"734 1 LINE",
"744 208 LINE",
"362 208 LINE",
"361 722 LINE",
"40 711 LINE",
"42 52 LINE SMOOTH",
"42 20 OFFCURVE",
"65 0 OFFCURVE",
"96 0 CURVE SMOOTH"
);
},
{
closed = 1;
nodes = (
"746 258 LINE",
"742 555 LINE",
"411 545 LINE",
"413 257 LINE"
);
},
{
closed = 1;
nodes = (
"746 591 LINE",
"742 719 LINE",
"411 709 LINE",
"413 590 LINE"
);
}
);
width = 786;
}
);
leftMetricsKey = L;
rightMetricsKey = E;
},
{
glyphname = L_O;
lastChange = "2019-01-06 21:16:11 +0000";
layers = (
{
components = (
{
name = L;
},
{
name = E;
transform = "{1, 0, 0, 1, 310, 0}";
}
);
layerId = "70C1C305-1527-4B64-A783-0E6E42733019";
width = 638;
},
{
components = (
{
name = L;
},
{
name = E;
transform = "{1, 0, 0, 1, 400, 0}";
}
);
layerId = "A6FDD890-DF19-4F70-BF4D-8BEF15A30956";
width = 838;
},
{
components = (
{
name = L;
},
{
name = E;
transform = "{1, 0, 0, 1, 540, 0}";
}
);
layerId = "3C16ED14-659A-4B3A-8531-3D340CEF6A86";
width = 1121;
},
{
layerId = "3F0EE33B-F72D-4BDD-9E60-96B83BD7A098";
paths = (
{
closed = 1;
nodes = (
"1130 1 LINE",
"1140 208 LINE",
"362 208 LINE",
"361 722 LINE",
"40 711 LINE",
"42 52 LINE SMOOTH",
"42 20 OFFCURVE",
"65 0 OFFCURVE",
"96 0 CURVE SMOOTH"
);
},
{
closed = 1;
nodes = (
"944 260 LINE SMOOTH",
"1115 260 OFFCURVE",
"1148 359 OFFCURVE",
"1148 461 CURVE SMOOTH",
"1148 517 LINE SMOOTH",
"1148 619 OFFCURVE",
"1115 718 OFFCURVE",
"944 718 CURVE SMOOTH",
"614 718 LINE SMOOTH",
"443 718 OFFCURVE",
"410 619 OFFCURVE",
"410 517 CURVE SMOOTH",
"410 461 LINE SMOOTH",
"410 359 OFFCURVE",
"443 260 OFFCURVE",
"614 260 CURVE SMOOTH"
);
},
{
closed = 1;
nodes = (
"730 547 LINE",
"833 557 LINE",
"823 442 LINE",
"730 432 LINE"
);
}
);
width = 1188;
}
);
leftMetricsKey = L;
rightMetricsKey = E;
},
{
glyphname = L_U;
lastChange = "2019-01-06 21:16:11 +0000";
layers = (
{
components = (
{
name = L;
},
{
name = E;
transform = "{1, 0, 0, 1, 310, 0}";
}
);
layerId = "70C1C305-1527-4B64-A783-0E6E42733019";
width = 638;
},
{
components = (
{
name = L;
},
{
name = E;
transform = "{1, 0, 0, 1, 400, 0}";
}
);
layerId = "A6FDD890-DF19-4F70-BF4D-8BEF15A30956";
width = 838;
},
{
components = (
{
name = L;
},
{
name = E;
transform = "{1, 0, 0, 1, 540, 0}";
}
);
layerId = "3C16ED14-659A-4B3A-8531-3D340CEF6A86";
width = 1121;
},
{
layerId = "3F0EE33B-F72D-4BDD-9E60-96B83BD7A098";
paths = (
{
closed = 1;
nodes = (
"1130 1 LINE",
"1140 208 LINE",
"362 208 LINE",
"361 722 LINE",
"40 711 LINE",
"42 52 LINE SMOOTH",
"42 20 OFFCURVE",
"65 0 OFFCURVE",
"96 0 CURVE SMOOTH"
);
},
{
closed = 1;
nodes = (
"1091 260 LINE SMOOTH",
"1122 260 OFFCURVE",
"1145 279 OFFCURVE",
"1145 311 CURVE SMOOTH",
"1145 722 LINE",
"835 718 LINE",
"825 442 LINE",
"732 432 LINE",
"732 721 LINE",
"412 716 LINE",
"412 311 LINE SMOOTH",
"412 279 OFFCURVE",
"435 260 OFFCURVE",
"466 260 CURVE SMOOTH"
);
}
);
width = 1185;
}
);
leftMetricsKey = L;
rightMetricsKey = E;
},
{
glyphname = L_U_T_E;
lastChange = "2019-01-06 21:16:11 +0000";
layers = (
{
components = (
{
name = L;
},
{
name = E;
transform = "{1, 0, 0, 1, 310, 0}";
}
);
layerId = "70C1C305-1527-4B64-A783-0E6E42733019";
width = 638;
},
{
components = (
{
name = L;
},
{
name = E;
transform = "{1, 0, 0, 1, 400, 0}";
}
);
layerId = "A6FDD890-DF19-4F70-BF4D-8BEF15A30956";
width = 838;
},
{
components = (
{
name = L;
},
{
name = E;
transform = "{1, 0, 0, 1, 540, 0}";
}
);
layerId = "3C16ED14-659A-4B3A-8531-3D340CEF6A86";
width = 1121;
},
{
layerId = "3F0EE33B-F72D-4BDD-9E60-96B83BD7A098";
paths = (
{
closed = 1;
nodes = (
"1145 1 LINE",
"1155 208 LINE",
"362 208 LINE",
"361 722 LINE",
"40 711 LINE",
"42 52 LINE SMOOTH",
"42 20 OFFCURVE",
"65 0 OFFCURVE",
"96 0 CURVE SMOOTH"
);
},
{
closed = 1;
nodes = (
"1091 260 LINE SMOOTH",
"1122 260 OFFCURVE",
"1145 279 OFFCURVE",
"1145 311 CURVE SMOOTH",
"1145 610 LINE",
"835 606 LINE",
"835 385 LINE",
"732 375 LINE",
"732 721 LINE",
"412 716 LINE",
"412 311 LINE SMOOTH",
"412 279 OFFCURVE",
"435 260 OFFCURVE",
"466 260 CURVE SMOOTH"
);
},
{
closed = 1;
nodes = (
"1520 0 LINE",
"1520 718 LINE",
"1200 718 LINE",
"1200 0 LINE"
);
},
{
closed = 1;
nodes = (
"2275 2 LINE",
"2281 196 LINE",
"1890 189 LINE",
"1890 345 LINE",
"2275 338 LINE",
"2281 502 LINE",
"1570 502 LINE",
"1570 2 LINE"
);
},
{
closed = 1;
nodes = (
"2287 718 LINE",
"835 718 LINE",
"835 548 LINE",
"2281 537 LINE"
);
},
{
closed = 1;
nodes = (
"2210 227 LINE",
"2216 309 LINE",
"1805 309 LINE",
"1805 220 LINE"
);
}
);
width = 2327;
}
);
leftMetricsKey = L;
rightMetricsKey = E;
},
{
glyphname = T_E;
lastChange = "2019-01-06 21:16:11 +0000";
layers = (
{
components = (
{
name = T;
},
{
name = E;
transform = "{1, 0, 0, 1, 600, 0}";
}
);
layerId = "70C1C305-1527-4B64-A783-0E6E42733019";
width = 928;
},
{
components = (
{
name = T;
},
{
name = E;
transform = "{1, 0, 0, 1, 600, 0}";
}
);
layerId = "A6FDD890-DF19-4F70-BF4D-8BEF15A30956";
width = 1038;
},
{
components = (
{
name = T;
},
{
name = E;
transform = "{1, 0, 0, 1, 600, 0}";
}
);
layerId = "3C16ED14-659A-4B3A-8531-3D340CEF6A86";
width = 1181;
},
{
layerId = "3F0EE33B-F72D-4BDD-9E60-96B83BD7A098";
paths = (
{
closed = 1;
nodes = (
"1356 2 LINE",
"1362 176 LINE",
"941 169 LINE",
"941 295 LINE",
"1356 288 LINE",
"1362 462 LINE",
"621 462 LINE",
"621 2 LINE"
);
},
{
closed = 1;
nodes = (
"571 0 LINE",
"571 718 LINE",
"251 718 LINE",
"251 0 LINE"
);
},
{
closed = 1;
nodes = (
"1291 207 LINE",
"1297 259 LINE",
"856 259 LINE",
"856 200 LINE"
);
},
{
closed = 1;
nodes = (
"1368 718 LINE",
"40 717.814 LINE",
"40 508 LINE",
"1362 497 LINE"
);
}
);
width = 1408;
}
);
leftMetricsKey = T;
rightMetricsKey = E;
},
{
glyphname = dollar;
lastChange = "2019-01-06 20:52:08 +0000";
layers = (
{
layerId = "70C1C305-1527-4B64-A783-0E6E42733019";
width = 600;
},
{
layerId = "A6FDD890-DF19-4F70-BF4D-8BEF15A30956";
width = 600;
},
{
layerId = "3C16ED14-659A-4B3A-8531-3D340CEF6A86";
width = 600;
},
{
components = (
{
alignment = -1;
name = S;
transform = "{0.8438, 0, 0, 0.79007, 5, 81}";
}
);
layerId = "3F0EE33B-F72D-4BDD-9E60-96B83BD7A098";
paths = (
{
closed = 1;
nodes = (
"569 500 LINE",
"569 718 LINE",
"249 718 LINE",
"249 500 LINE"
);
},
{
closed = 1;
nodes = (
"569 0 LINE",
"569 218 LINE",
"249 218 LINE",
"249 0 LINE"
);
}
);
width = 818;
}
);
unicode = 0024;
},
{
glyphname = Round_Stem;
lastChange = "2019-01-06 21:25:59 +0000";
layers = (
{
layerId = "70C1C305-1527-4B64-A783-0E6E42733019";
paths = (
{
closed = 1;
nodes = (
"298 1 LINE",
"298 119 LINE",
"150 109 LINE",
"150 610 LINE",
"298 600 LINE",
"298 718 LINE",
"74 719 LINE SMOOTH",
"43 719 OFFCURVE",
"20 699 OFFCURVE",
"20 667 CURVE",
"20 52 LINE",
"20 20 OFFCURVE",
"43 0 OFFCURVE",
"74 0 CURVE SMOOTH"
);
}
);
width = 318;
},
{
layerId = "A6FDD890-DF19-4F70-BF4D-8BEF15A30956";
paths = (
{
closed = 1;
nodes = (
"408 1 LINE",
"408 239 LINE",
"260 229 LINE",
"260 490 LINE",
"408 480 LINE",
"408 718 LINE",
"74 719 LINE SMOOTH",
"43 719 OFFCURVE",
"20 699 OFFCURVE",
"20 667 CURVE",
"20 52 LINE",
"20 20 OFFCURVE",
"43 0 OFFCURVE",
"74 0 CURVE SMOOTH"
);
}
);
width = 428;
},
{
layerId = "3C16ED14-659A-4B3A-8531-3D340CEF6A86";
paths = (
{
closed = 1;
nodes = (
"320 1 LINE",
"320 718 LINE",
"54 719 LINE SMOOTH",
"23 719 OFFCURVE",
"0 699 OFFCURVE",
"0 667 CURVE",
"0 52 LINE",
"0 20 OFFCURVE",
"23 0 OFFCURVE",
"54 0 CURVE SMOOTH"
);
}
);
width = 320;
},
{
layerId = "3F0EE33B-F72D-4BDD-9E60-96B83BD7A098";
paths = (
{
closed = 1;
nodes = (
"320 0 LINE",
"320 718 LINE",
"54 718 LINE SMOOTH",
"23 718 OFFCURVE",
"0 698 OFFCURVE",
"0 666 CURVE",
"0 52 LINE",
"0 20 OFFCURVE",
"23 0 OFFCURVE",
"54 0 CURVE SMOOTH"
);
}
);
width = 320;
}
);
},
{
glyphname = Stem;
lastChange = "2019-01-06 21:25:59 +0000";
layers = (
{
layerId = "70C1C305-1527-4B64-A783-0E6E42733019";
width = 600;
},
{
layerId = "3F0EE33B-F72D-4BDD-9E60-96B83BD7A098";
paths = (
{
closed = 1;
nodes = (
"320 0 LINE",
"320 718 LINE",
"0 718 LINE",
"0 0 LINE"
);
}
);
width = 320;
},
{
layerId = "A6FDD890-DF19-4F70-BF4D-8BEF15A30956";
width = 600;
},
{
layerId = "3C16ED14-659A-4B3A-8531-3D340CEF6A86";
paths = (
{
closed = 1;
nodes = (
"320 1 LINE",
"320 718 LINE",
"0 719 LINE",
"0 0 LINE"
);
}
);
width = 320;
}
);
},
{
glyphname = Bottom_Arm;
lastChange = "2019-01-06 21:25:59 +0000";
layers = (
{
layerId = "70C1C305-1527-4B64-A783-0E6E42733019";
width = 600;
},
{
layerId = "3F0EE33B-F72D-4BDD-9E60-96B83BD7A098";
paths = (
{
closed = 1;
nodes = (
"735 0 LINE",
"741 310 LINE",
"0 288 LINE",
"0 0 LINE"
);
}
);
width = 741;
},
{
layerId = "A6FDD890-DF19-4F70-BF4D-8BEF15A30956";
width = 600;
},
{
layerId = "3C16ED14-659A-4B3A-8531-3D340CEF6A86";
paths = (
{
closed = 1;
nodes = (
"735 1 LINE",
"741 279 LINE",
"0 257 LINE",
"0 0 LINE"
);
}
);
width = 741;
}
);
},
{
glyphname = Top_Arm;
lastChange = "2019-01-06 21:25:59 +0000";
layers = (
{
layerId = "70C1C305-1527-4B64-A783-0E6E42733019";
width = 600;
},
{
layerId = "3F0EE33B-F72D-4BDD-9E60-96B83BD7A098";
paths = (
{
closed = 1;
nodes = (
"741 718 LINE",
"0 718 LINE",
"0 427 LINE",
"735 409 LINE"
);
}
);
width = 741;
},
{
layerId = "A6FDD890-DF19-4F70-BF4D-8BEF15A30956";
width = 600;
},
{
layerId = "3C16ED14-659A-4B3A-8531-3D340CEF6A86";
paths = (
{
closed = 1;
nodes = (
"741 718 LINE",
"0 719 LINE",
"0 458 LINE",
"735 440 LINE"
);
}
);
width = 741;
}
);
},
{
glyphname = DIagonal_left;
lastChange = "2019-01-06 20:52:08 +0000";
layers = (
{
layerId = "3F0EE33B-F72D-4BDD-9E60-96B83BD7A098";
paths = (
{
closed = 1;
nodes = (
"406 0 LINE",
"406 350 LINE",
"344 718 LINE",
"0 718 LINE",
"241 0 LINE"
);
}
